<svg width="155" height="155" viewBox="0 0 155 155" fill="none" xmlns="http://www.w3.org/2000/svg">
<path d="M31 69.75C31 44.0781 51.8281 23.25 77.5 23.25C103.172 23.25 124 44.0781 124 69.75C124 95.4219 103.172 116.25 77.5 116.25C51.8281 116.25 31 95.4219 31 69.75ZM73.625 47.4688V48.4375C66.65 48.5102 61.0312 54.1773 61.0312 61.1523C61.0312 67.3766 65.5117 72.6805 71.6633 73.6977L81.7625 75.393C83.2156 75.6352 84.2812 76.8945 84.2812 78.3719C84.2812 80.043 82.925 81.3992 81.2539 81.3992L67.8125 81.375C65.1484 81.375 62.9688 83.5547 62.9688 86.2188C62.9688 88.8828 65.1484 91.0625 67.8125 91.0625H73.625V92.0312C73.625 94.6953 75.8047 96.875 78.4688 96.875C81.1328 96.875 83.3125 94.6953 83.3125 92.0312V90.893C89.3672 89.9 93.9688 84.6688 93.9688 78.3477C93.9688 72.1234 89.4883 66.8195 83.3367 65.8023L73.2375 64.107C71.7844 63.8648 70.7188 62.6055 70.7188 61.1281C70.7188 59.457 72.075 58.1008 73.7461 58.1008H85.25C87.9141 58.1008 90.0938 55.9211 90.0938 53.257C90.0938 50.593 87.9141 48.4133 85.25 48.4133H83.3125V47.4445C83.3125 44.7805 81.1328 42.6008 78.4688 42.6008C75.8047 42.6008 73.625 44.7805 73.625 47.4445V47.4688ZM19.375 98.8125V124C19.375 126.131 21.1187 127.875 23.25 127.875H131.75C133.881 127.875 135.625 126.131 135.625 124V98.8125C135.625 95.5914 138.216 93 141.438 93C144.659 93 147.25 95.5914 147.25 98.8125V124C147.25 132.549 140.299 139.5 131.75 139.5H23.25C14.7008 139.5 7.75 132.549 7.75 124V98.8125C7.75 95.5914 10.3414 93 13.5625 93C16.7836 93 19.375 95.5914 19.375 98.8125Z" fill="#3A5D57"/>
</svg>
