<svg width="143" height="148" viewBox="0 0 143 148" fill="none" xmlns="http://www.w3.org/2000/svg">
<path d="M67.2327 34.5027L41.1799 64.4727C40.1521 65.6521 40.1968 67.4789 41.2916 68.6121C48.1065 75.6652 59.1666 75.6652 65.9815 68.6121L73.0868 61.2583C74.0252 60.2871 75.2095 59.7552 76.416 59.6627C77.9354 59.5239 79.4994 60.0558 80.6613 61.2583L120.12 101.75L135.85 88.8002V22.2002L110.825 37.0002L105.508 33.3233C101.977 30.8952 97.8437 29.6002 93.5984 29.6002H77.8684C77.6226 29.6002 77.3545 29.6002 77.1087 29.6233C73.3326 29.8314 69.7799 31.5889 67.2327 34.5027ZM33.2032 57.0496L57.0663 29.6002H48.2182C42.5205 29.6002 37.0687 31.9358 33.0468 36.0983L32.1754 37.0002L7.15039 22.2002V88.8002L42.096 118.932C47.2351 123.372 53.7148 125.8 60.3955 125.8H63.9035L62.3395 124.181C60.2391 122.008 60.2391 118.493 62.3395 116.342C64.4398 114.191 67.836 114.168 69.914 116.342L79.0749 125.823H81.0859C85.3535 125.823 89.5318 124.829 93.3302 122.979L87.3644 116.781C85.2641 114.608 85.2641 111.093 87.3644 108.942C89.4648 106.791 92.861 106.768 94.939 108.942L102.089 116.342L105.999 112.295C107.988 110.237 108.569 107.254 107.697 104.641L76.8852 73.0058L73.556 76.4514C62.5405 87.8521 44.7102 87.8521 33.6948 76.4514C28.5557 71.1327 28.3546 62.5996 33.2032 57.0264V57.0496Z" fill="#3A5D57"/>
</svg>
