<svg width="156" height="155" viewBox="0 0 156 155" fill="none" xmlns="http://www.w3.org/2000/svg">
<path d="M66.3008 21.3125C66.3008 18.0914 68.9089 15.5 72.1508 15.5H83.8508C87.0927 15.5 89.7008 18.0914 89.7008 21.3125V34.875H103.351C106.593 34.875 109.201 37.4664 109.201 40.6875V52.3125C109.201 55.5336 106.593 58.125 103.351 58.125H89.7008V71.6875C89.7008 74.9086 87.0927 77.5 83.8508 77.5H72.1508C68.9089 77.5 66.3008 74.9086 66.3008 71.6875V58.125H52.6508C49.4089 58.125 46.8008 55.5336 46.8008 52.3125V40.6875C46.8008 37.4664 49.4089 34.875 52.6508 34.875H66.3008V21.3125ZM24.0589 108.5L34.4183 98.207C40.2683 92.3945 48.2145 89.125 56.4777 89.125H93.6008C97.9152 89.125 101.401 92.5883 101.401 96.875C101.401 101.162 97.9152 104.625 93.6008 104.625H76.0508C72.8089 104.625 70.2008 107.216 70.2008 110.438C70.2008 113.659 72.8089 116.25 76.0508 116.25H103.497L132.674 94.8891C137.013 91.7164 143.106 92.6367 146.3 96.9477C149.493 101.259 148.566 107.313 144.228 110.486L113.369 133.082C107.665 137.248 100.791 139.5 93.6983 139.5H15.6008C11.2864 139.5 7.80078 136.037 7.80078 131.75V116.25C7.80078 111.963 11.2864 108.5 15.6008 108.5H24.0589Z" fill="#F6DA88"/>
</svg>
