<svg width="153" height="115" viewBox="0 0 153 115" fill="none" xmlns="http://www.w3.org/2000/svg">
<path d="M23.2496 23.6876C23.2496 17.4275 30.0721 12.3379 38.4636 12.3379C46.8551 12.3379 53.6776 17.4275 53.6776 23.6876C53.6776 29.9476 46.8551 35.0372 38.4636 35.0372C30.0721 35.0372 23.2496 29.9476 23.2496 23.6876ZM15.6426 52.0617C15.6426 45.8017 22.4651 40.712 30.8566 40.712H46.0706C46.8313 40.712 47.592 40.7475 48.3289 40.8362L37.7742 48.71C31.0943 53.6932 31.0943 61.7799 37.7742 66.7631L51.0865 76.694C51.8947 77.297 52.7505 77.829 53.6776 78.2901V94.6229C53.6776 99.3224 48.5666 103.135 42.2671 103.135H34.6601C28.3605 103.135 23.2496 99.3224 23.2496 94.6229V73.2359C18.7092 71.2852 15.6426 67.6143 15.6426 63.4114V52.0617ZM99.3196 23.6876C99.3196 17.4275 106.142 12.3379 114.534 12.3379C122.925 12.3379 129.748 17.4275 129.748 23.6876C129.748 29.9476 122.925 35.0372 114.534 35.0372C106.142 35.0372 99.3196 29.9476 99.3196 23.6876ZM115.223 48.71L104.668 40.8362C105.405 40.7475 106.166 40.712 106.927 40.712H122.141C130.532 40.712 137.355 45.8017 137.355 52.0617V63.4114C137.355 67.6143 134.288 71.2852 129.748 73.2359V94.6229C129.748 99.3224 124.637 103.135 118.337 103.135H110.73C104.431 103.135 99.3196 99.3224 99.3196 94.6229V78.2901C100.247 77.829 101.103 77.297 101.911 76.694L115.223 66.7631C121.903 61.7799 121.903 53.6932 115.223 48.71ZM87.6238 43.8687C89.7633 43.2125 92.2118 43.5672 93.8521 44.7908L107.164 54.7218C109.399 56.3888 109.399 59.0843 107.164 60.7336L93.8521 70.6645C92.2118 71.8881 89.7633 72.2428 87.6238 71.5867C85.4844 70.9305 84.1056 69.3877 84.1056 67.6675V63.4114H68.8916V67.6675C68.8916 69.3877 67.5128 70.9483 65.3734 71.6044C63.2339 72.2606 60.7854 71.9059 59.1451 70.6822L45.8329 60.7513C43.5983 59.0843 43.5983 56.3888 45.8329 54.7395L59.1451 44.8086C60.7854 43.5849 63.2339 43.2302 65.3734 43.8864C67.5128 44.5426 68.8916 46.0854 68.8916 47.8056V52.0617H84.1056V47.8056C84.1056 46.0854 85.4844 44.5248 87.6238 43.8687Z" fill="#F6DA88"/>
</svg>
